
<svg width="200" height="200" viewBox="0 0 200 200" fill="none" xmlns="http://www.w3.org/2000/svg">
  <circle cx="100" cy="100" r="95" fill="#1A1F2C" stroke="#D4AF37" stroke-width="10"/>
  <path d="M135.893 134.516C134.241 134.516 132.666 134.086 131.3 133.284C129.934 132.482 128.834 131.344 128.118 129.998L96.193 70.5918C95.5316 69.3601 95.1778 67.9943 95.1588 66.6037C95.1397 65.213 95.4561 63.8381 96.0916 62.5897C96.7272 61.3412 97.6608 60.2578 98.811 59.4278C99.9612 58.5978 101.294 58.0434 102.696 57.8086C104.097 57.5739 105.53 57.6646 106.88 58.0737C108.231 58.4828 109.459 59.1994 110.463 60.1649C111.467 61.1305 112.218 62.3177 112.654 63.628C113.091 64.9384 113.2 66.3348 112.973 67.6978L109.663 86.9838L139.133 86.9838C140.785 86.9838 142.36 87.4133 143.726 88.2156C145.092 89.0179 146.192 90.1559 146.908 91.5018L161.887 120.05C162.549 121.281 162.903 122.647 162.922 124.038C162.941 125.429 162.625 126.804 161.99 128.052C161.354 129.301 160.421 130.384 159.27 131.214C158.12 132.044 156.788 132.599 155.386 132.833C153.984 133.068 152.551 132.977 151.2 132.568C149.85 132.159 148.622 131.443 147.618 130.477C146.614 129.511 145.863 128.324 145.426 127.014C144.99 125.703 144.881 124.307 145.108 122.944L147.268 110.5L126.933 110.5L111.193 140.404C110.531 141.636 109.597 142.719 108.447 143.549C107.296 144.379 105.964 144.934 104.562 145.169C103.16 145.404 101.727 145.313 100.377 144.904C99.0263 144.495 97.7979 143.779 96.7938 142.813L96.7868 142.806C95.7827 141.84 95.0325 140.653 94.5956 139.342C94.1587 138.032 94.0497 136.635 94.2762 135.273C94.5027 133.91 95.0591 132.632 95.8972 131.516C96.7354 130.399 97.8312 129.476 99.1028 128.816L119.703 117.9L132.303 91.5018L110.983 91.5018C109.331 91.5018 107.756 91.0723 106.39 90.2701C105.024 89.4678 103.924 88.3298 103.208 86.9838L90.7827 63.6278C90.1213 62.3962 89.7675 61.0303 89.7485 59.6397C89.7295 58.249 90.0459 56.8741 90.6814 55.6257C91.317 54.3772 92.2506 53.2938 93.4008 52.4638C94.551 51.6338 95.8839 51.0794 97.2855 50.8446C98.6871 50.6099 100.12 50.7006 101.47 51.1097C102.821 51.5188 104.049 52.2354 105.053 53.2009C106.057 54.1665 106.808 55.3537 107.244 56.664C107.681 57.9744 107.79 59.3708 107.563 60.7338L104.253 80.0198L120.533 80.0198C122.185 80.0198 123.76 80.4493 125.126 81.2516C126.492 82.0539 127.592 83.1919 128.308 84.5378L144.633 114.998C145.175 116.032 145.489 117.163 145.556 118.32C145.622 119.477 145.441 120.638 145.023 121.731C144.605 122.824 143.96 123.828 143.131 124.682C142.301 125.535 141.305 126.221 140.2 126.698L119.733 135.273L112.853 147.902C111.673 149.908 109.866 151.518 107.696 152.465C105.525 153.412 103.111 153.648 100.793 153.137C98.4757 152.626 96.3945 151.395 94.8699 149.612C93.3453 147.829 92.4566 145.587 92.333 143.241L92.333 143.241C92.2093 140.894 92.8578 138.575 94.1824 136.619C95.507 134.664 97.443 133.179 99.7028 132.383L126.873 122.988L140.863 95.9978L94.873 95.9978C93.2284 95.9926 91.6611 95.561 90.3027 94.7587C88.9444 93.9564 87.8509 92.8205 87.143 91.4778L69.3537 57.8086C68.6924 56.577 68.3386 55.2112 68.3195 53.8205C68.3005 52.4299 68.6169 51.0549 69.2525 49.8065C69.888 48.558 70.8216 47.4746 71.9718 46.6446C73.122 45.8146 74.455 45.2602 75.8565 45.0255C77.2581 44.7908 78.691 44.8815 80.0415 45.2906C81.3921 45.6997 82.62 46.4162 83.6241 47.3818C84.6282 48.3474 85.3791 49.5345 85.8154 50.8449C86.2516 52.1553 86.3606 53.5517 86.1341 54.9146L82.7961 74.3666L93.1327 74.3666C94.7773 74.3717 96.3446 74.8033 97.703 75.6056C99.0613 76.408 100.155 77.5438 100.863 78.8866L115.843 107.435C116.504 108.667 116.858 110.033 116.877 111.424C116.896 112.814 116.58 114.189 115.944 115.438C115.309 116.686 114.375 117.77 113.225 118.6C112.074 119.43 110.742 119.985 109.34 120.219C107.939 120.454 106.506 120.363 105.155 119.954C103.805 119.545 102.577 118.829 101.573 117.863C100.569 116.897 99.818 115.71 99.3814 114.4C98.9445 113.089 98.8355 111.693 99.062 110.33L101.653 95.9978L77.3327 95.9978C75.6881 95.9926 74.1208 95.561 72.7624 94.7587C71.4041 93.9564 70.3106 92.8205 69.6027 91.4778L60.393 74.3666L45.2534 74.3666C43.6016 74.3666 41.9853 73.9371 40.5737 73.1348C39.1621 72.3325 37.9997 71.1945 37.2234 69.8486L31.3631 59.6398C30.7017 58.4081 30.3479 57.0423 30.3289 55.6517C30.3099 54.261 30.6263 52.886 31.2618 51.6376C31.8974 50.3892 32.831 49.3058 33.9812 48.4758C35.1313 47.6458 36.4643 47.0914 37.8659 46.8566C39.2675 46.6219 40.7004 46.7126 42.0509 47.1217C43.4015 47.5308 44.6294 48.2474 45.6335 49.2129C46.6376 50.1785 47.3885 51.3657 47.8248 52.676C48.261 53.9864 48.37 55.3828 48.1435 56.7458L47.3827 59.6398L82.7961 59.6398C84.4407 59.6448 86.008 60.0765 87.3664 60.8788C88.7247 61.6811 89.8182 62.817 90.5261 64.1598L115.843 109.969C116.439 111.035 116.84 112.191 117.025 113.389C117.211 114.587 117.177 115.811 116.927 117L113.683 131.418L129.593 125.523L140.863 104.434C141.539 103.152 142.55 102.061 143.8 101.274C145.05 100.486 146.49 100.032 147.963 99.9588C149.436 99.8858 150.91 100.196 152.232 100.857C153.553 101.518 154.673 102.507 155.473 103.716C156.273 104.925 156.732 106.314 156.804 107.749C156.876 109.185 156.558 110.615 155.88 111.897L150.053 122.944L167.713 115.54C169.338 114.838 171.127 114.622 172.87 114.916C174.613 115.211 176.237 116.004 177.563 117.212C178.889 118.42 179.866 119.994 180.392 121.749C180.918 123.503 180.974 125.373 180.554 127.156L180.554 127.156C180.134 128.939 179.255 130.568 178.006 131.851C176.756 133.134 175.184 134.024 173.466 134.428L135.893 134.516Z" fill="#D4AF37"/>
</svg>
